<svg width="23" height="23" viewBox="0 0 23 23" fill="none" xmlns="http://www.w3.org/2000/svg">
<path d="M11.3595 0C5.0864 0 0 5.0864 0 11.3595C0 17.6326 5.0864 22.72 11.3595 22.72C17.6326 22.72 22.72 17.6326 22.72 11.3595C22.72 5.0864 17.6326 0 11.3595 0ZM13.7243 17.6057C13.1396 17.8365 12.6742 18.0115 12.3251 18.1327C11.9769 18.2539 11.5721 18.3145 11.1114 18.3145C10.4036 18.3145 9.85255 18.1414 9.46017 17.7961C9.0678 17.4509 8.87258 17.0133 8.87258 16.4815C8.87258 16.2747 8.88701 16.0632 8.91586 15.8477C8.94567 15.6323 8.99279 15.39 9.05723 15.1178L9.78907 12.5328C9.85351 12.2847 9.90929 12.0491 9.95352 11.8298C9.99776 11.6086 10.0189 11.4057 10.0189 11.221C10.0189 10.8921 9.95064 10.6613 9.81504 10.5315C9.67752 10.4017 9.41882 10.3382 9.03318 10.3382C8.84469 10.3382 8.65043 10.3661 8.45136 10.4248C8.25421 10.4853 8.08303 10.5402 7.94262 10.594L8.13592 9.79773C8.61485 9.60251 9.07358 9.43517 9.51115 9.29669C9.94872 9.15628 10.3622 9.08704 10.7517 9.08704C11.4547 9.08704 11.9971 9.25822 12.3789 9.59674C12.7588 9.93621 12.9502 10.3776 12.9502 10.92C12.9502 11.0325 12.9367 11.2307 12.9107 11.5134C12.8848 11.7971 12.8357 12.0558 12.7646 12.2933L12.0366 14.8707C11.9769 15.0774 11.924 15.314 11.8759 15.5785C11.8288 15.8429 11.8057 16.0449 11.8057 16.1805C11.8057 16.5229 11.8817 16.7565 12.0356 16.8806C12.1875 17.0047 12.4539 17.0672 12.8309 17.0672C13.0088 17.0672 13.2079 17.0354 13.4329 16.9739C13.656 16.9123 13.8176 16.8575 13.9195 16.8104L13.7243 17.6057ZM13.5955 7.14442C13.256 7.45985 12.8473 7.61757 12.3693 7.61757C11.8923 7.61757 11.4807 7.45985 11.1383 7.14442C10.7979 6.82898 10.6257 6.44527 10.6257 5.99712C10.6257 5.54993 10.7989 5.16525 11.1383 4.84693C11.4807 4.52765 11.8923 4.36897 12.3693 4.36897C12.8473 4.36897 13.2569 4.52765 13.5955 4.84693C13.9349 5.16525 14.1052 5.54993 14.1052 5.99712C14.1052 6.44623 13.9349 6.82898 13.5955 7.14442Z" fill="#030104"/>
</svg>
